<?xml version="1.0" encoding="UTF-8"?><!DOCTYPE svg PUBLIC "-//W3C//DTD SVG 1.1//EN" "http://www.w3.org/Graphics/SVG/1.1/DTD/svg11.dtd"><svg xmlns="http://www.w3.org/2000/svg" xmlns:xlink="http://www.w3.org/1999/xlink"><symbol viewBox="0 0 38 14" id="a-dots" xmlns="http://www.w3.org/2000/svg"><g fill="#000" fill-rule="evenodd"><path d="M18.305 12.67c3.208 0 5.809-2.567 5.809-5.734s-2.6-5.734-5.809-5.734c-3.208 0-5.809 2.567-5.809 5.734s2.6 5.735 5.809 5.735M31.879 12.67c3.208 0 5.809-2.567 5.809-5.734s-2.6-5.734-5.809-5.734c-3.208 0-5.809 2.567-5.809 5.734s2.6 5.735 5.809 5.735M5.36 0C2.285 0 .736 1.545.525 3.896H3.73c.111-.636.548-1.213 1.63-1.213 1.282 0 1.795.836 1.795 2v.684c-.36-.228-1.206-.557-2.437-.557C1.872 4.81 0 6.734 0 9.265c0 2.81 2.026 4.608 4.77 4.608 1.59 0 2.513-.633 2.898-1.038v.86h2.872v-8.53C10.54 2.151 9.309 0 5.36 0M5.23 11.19c-1.18 0-2-.81-2-1.95 0-1.088.795-1.924 1.975-1.924 1.154 0 2 .785 2 1.924 0 1.14-.846 1.95-1.975 1.95"/></g></symbol><symbol viewBox="0 0 16 19" id="alert" xmlns="http://www.w3.org/2000/svg"><path d="M6.222 17.19c0 1 .795 1.81 1.778 1.81s1.778-.81 1.778-1.81H6.222zm7.894-3.781V8.143c0-2.94-2-5.402-4.703-6.053v-.651C9.413.642 8.783 0 8 0c-.782 0-1.413.642-1.413 1.439v.651c-2.703.651-4.703 3.112-4.703 6.053v5.266L0 15.327v.959h16v-.96l-1.884-1.917zm-2.56-3.453H8.889v2.71H7.11v-2.71H4.444V8.139h2.667V5.43H8.89v2.71h2.667v1.817z" fill="#000" fill-rule="evenodd"/></symbol><symbol viewBox="0 0 14 16" id="anmelden" xmlns="http://www.w3.org/2000/svg"><path d="M12.444 1.556h-3.25A2.341 2.341 0 0 0 7 0a2.341 2.341 0 0 0-2.193 1.556H1.556C.7 1.556 0 2.256 0 3.11V14c0 .856.7 1.556 1.556 1.556h10.888c.856 0 1.556-.7 1.556-1.556V3.111c0-.855-.7-1.555-1.556-1.555zM7 1.556a.78.78 0 0 1 .778.777.78.78 0 0 1-.778.778.78.78 0 0 1-.778-.778A.78.78 0 0 1 7 1.556zm1.556 10.888H3.11V10.89h5.445v1.555zm2.333-3.11H3.11V7.777h7.778v1.555zm0-3.112H3.11V4.667h7.778v1.555z" fill="#FFF" fill-rule="evenodd"/></symbol><symbol viewBox="0 0 40 25" id="arrow" xmlns="http://www.w3.org/2000/svg"><path fill="none" d="M-1-1h42v27H-1z"/><g><path stroke="null" d="M20 15.327L4.7.06 0 4.76l20 20 20-20-4.7-4.7z"/></g></symbol><symbol viewBox="0 0 24 24" id="arrow-full" xmlns="http://www.w3.org/2000/svg"><path d="M0 0h24v24H0z" fill="none"/><path d="M20 11H7.83l5.59-5.59L12 4l-8 8 8 8 1.41-1.41L7.83 13H20v-2z"/></symbol><symbol viewBox="0 0 12 7.4" id="arrow-keyboard-down" xmlns="http://www.w3.org/2000/svg"><path d="M1.4 0L6 4.6 10.6 0 12 1.4l-6 6-6-6L1.4 0z"/></symbol><symbol viewBox="0 0 14 19" id="audio" xmlns="http://www.w3.org/2000/svg"><path d="M7 12a3 3 0 0 0 3-3V3a3 3 0 0 0-6 0v6a3 3 0 0 0 3 3zm5.3-3A5.19 5.19 0 0 1 7 14.1 5.19 5.19 0 0 1 1.7 9H0a7 7 0 0 0 6 6.72V19h2v-3.28A7 7 0 0 0 14 9z"/></symbol><symbol viewBox="0 0 201 201" id="avatar" xmlns="http://www.w3.org/2000/svg"><circle cx="100.5" cy="72" r="45.5"/><path d="M22.9 163c18.1 22.9 46.2 37.5 77.6 37.5s59.5-14.7 77.6-37.5c-19.6-15.1-56.2-22.7-77.6-22.7s-58 7.6-77.6 22.7z"/></symbol><symbol viewBox="0 0 20 13" id="back-to-top" xmlns="http://www.w3.org/2000/svg"><path d="M2.35 12.35L10 4.717l7.65 7.633L20 10 10 0 0 10z" fill-rule="nonzero" fill="#FFF"/></symbol><symbol viewBox="0 0 24 24" id="baseline-arrow-forward" xmlns="http://www.w3.org/2000/svg"><path d="M0 0h24v24H0z" fill="none"/><path d="M12 4l-1.41 1.41L16.17 11H4v2h12.17l-5.58 5.59L12 20l8-8z"/></symbol><symbol viewBox="0 0 24 24" id="baseline-equalizer" xmlns="http://www.w3.org/2000/svg"><path d="M0 0h24v24H0z" fill="none"/><path d="M10 20h4V4h-4v16zm-6 0h4v-8H4v8zM16 9v11h4V9h-4z"/></symbol><symbol viewBox="0 0 24 24" id="baseline-group" xmlns="http://www.w3.org/2000/svg"><path d="M0 0h24v24H0z" fill="none"/><path d="M16 11c1.66 0 2.99-1.34 2.99-3S17.66 5 16 5c-1.66 0-3 1.34-3 3s1.34 3 3 3zm-8 0c1.66 0 2.99-1.34 2.99-3S9.66 5 8 5C6.34 5 5 6.34 5 8s1.34 3 3 3zm0 2c-2.33 0-7 1.17-7 3.5V19h14v-2.5c0-2.33-4.67-3.5-7-3.5zm8 0c-.29 0-.62.02-.97.05 1.16.84 1.97 1.97 1.97 3.45V19h6v-2.5c0-2.33-4.67-3.5-7-3.5z"/></symbol><symbol viewBox="0 0 24 24" id="baseline-history" xmlns="http://www.w3.org/2000/svg"><path d="M0 0h24v24H0z" fill="none"/><path d="M13 3a9 9 0 0 0-9 9H1l3.89 3.89.07.14L9 12H6c0-3.87 3.13-7 7-7s7 3.13 7 7-3.13 7-7 7c-1.93 0-3.68-.79-4.94-2.06l-1.42 1.42A8.954 8.954 0 0 0 13 21a9 9 0 0 0 0-18zm-1 5v5l4.28 2.54.72-1.21-3.5-2.08V8H12z"/></symbol><symbol viewBox="0 0 24 24" id="baseline-videocam" xmlns="http://www.w3.org/2000/svg"><path d="M0 0h24v24H0z" fill="none"/><path d="M17 10.5V7c0-.55-.45-1-1-1H4c-.55 0-1 .45-1 1v10c0 .55.45 1 1 1h12c.55 0 1-.45 1-1v-3.5l4 4v-11l-4 4z"/></symbol><symbol viewBox="0 0 14 18" id="bookmark" xmlns="http://www.w3.org/2000/svg"><path d="M2 0C.9 0 .01.9.01 2L0 18l7-3 7 3V2c0-1.1-.9-2-2-2H2zm5 12.82L2 15V2h10v13l-5-2.18z" fill="#000" fill-rule="evenodd"/></symbol><symbol viewBox="0 0 16.44 13.71" id="burger-menu" xmlns="http://www.w3.org/2000/svg"><defs><style>.apcls-1{fill:#f6f5f4;stroke:#fff;stroke-miterlimit:10;stroke-width:2px}</style></defs><g id="apLayer_2" data-name="Layer 2"><g id="apHotspots"><path class="apcls-1" d="M0 1h16.44M0 6.89h16.44M0 12.71h16.44"/></g></g></symbol><symbol viewBox="0 0 20 20" id="clock" xmlns="http://www.w3.org/2000/svg"><path d="M10 0a10 10 0 1 0 10 10A10 10 0 0 0 10 0zm0 18a8 8 0 1 1 8-8 8 8 0 0 1-8 8z"/><path d="M10.5 5H9v6l5.25 3.15.75-1.23-4.5-2.67z"/></symbol><symbol viewBox="0 0 13.71 13.71" id="clock-2" xmlns="http://www.w3.org/2000/svg"><defs><style>.arcls-1{fill:#f2f2f2}</style></defs><g id="arLayer_2" data-name="Layer 2"><path class="arcls-1" d="M6.85 0a6.86 6.86 0 1 0 6.86 6.85A6.85 6.85 0 0 0 6.85 0zm0 12A5.14 5.14 0 1 1 12 6.85 5.14 5.14 0 0 1 6.85 12zm4.29-5.14a.86.86 0 0 1-.86.86H6.85A.85.85 0 0 1 6 6.85V3.43a.86.86 0 1 1 1.71 0V6h2.57a.86.86 0 0 1 .86.85z" id="arHotspots"/></g></symbol><symbol viewBox="0 0 14 14" id="close" xmlns="http://www.w3.org/2000/svg"><path d="M14 1.4L12.6 0 7 5.6 1.4 0 0 1.4 5.6 7 0 12.6 1.4 14 7 8.4l5.6 5.6 1.4-1.4L8.4 7 14 1.4z"/></symbol><symbol viewBox="0 0 20 20" id="comment" xmlns="http://www.w3.org/2000/svg"><path d="M18 0H2C.9 0 0 .9 0 2v18l4-4h14c1.1 0 2-.9 2-2V2c0-1.1-.9-2-2-2zM7.4 8.9H5.6V7.1h1.8v1.8zm3.5 0H9.1V7.1h1.8v1.8zm3.5 0h-1.8V7.1h1.8v1.8z"/></symbol><symbol viewBox="0 0 305.6 315.8" id="comment-disabled" xmlns="http://www.w3.org/2000/svg"><path d="M298.7 68.4c0-7.3-2.7-13.6-8-19-5.4-5.4-11.7-8.1-19-8.1H113.5l185.2 185.2V68.4zM301.1 277.1l-18.5-18.5s.1 0 .1-.1L65.5 41.4h-.2L28.5 4.5c-6-6-15.6-6-21.6 0L4.5 6.9c-6 6-6 15.6 0 21.6l24.7 24.7c-3.2 4.5-4.9 9.6-4.9 15.2v247.4L79.1 261H237l40.1 40.1c6 6 15.6 6 21.6 0l2.4-2.4c6-6 6-15.6 0-21.6z"/></symbol><symbol viewBox="0 0 44 44" id="copy-link" xmlns="http://www.w3.org/2000/svg"><g fill="none" fill-rule="evenodd"><circle stroke="#000" stroke-width="2" cx="22" cy="22" r="21"/><path d="M15.127 28.873a3.723 3.723 0 0 1 0-5.26l3.394-3.395-1.612-1.612L13.515 22a6.002 6.002 0 0 0 0 8.485 6.002 6.002 0 0 0 8.485 0l3.394-3.394-1.612-1.612-3.394 3.394a3.723 3.723 0 0 1-5.261 0h0zm4.327-2.63l6.789-6.789-1.697-1.697-6.789 6.789 1.697 1.697zM22 13.515l-3.394 3.394 1.612 1.612 3.394-3.394a3.723 3.723 0 0 1 5.261 0 3.723 3.723 0 0 1 0 5.26l-3.394 3.395 1.612 1.612L30.485 22a6.002 6.002 0 0 0 0-8.485 6.002 6.002 0 0 0-8.485 0h0z" stroke="#3B3A39" fill="#000"/></g></symbol><symbol viewBox="0 0 17 18" id="date" xmlns="http://www.w3.org/2000/svg"><path d="M3.6 9.9h9V8.1h-9v1.8zm10.8-8.1h-.9V0h-1.8v1.8H4.5V0H2.7v1.8h-.9c-1 0-1.791.81-1.791 1.8L0 16.2c0 .99.8 1.8 1.8 1.8h12.6c.99 0 1.8-.81 1.8-1.8V3.6c0-.99-.81-1.8-1.8-1.8zM1.8 6.3h12.6v9.9H1.8V6.3zm1.8 7.2h6.3v-1.8H3.6v1.8z" fill="#000" fill-rule="evenodd"/></symbol><symbol viewBox="0 0 16 16" id="datengeschichte" xmlns="http://www.w3.org/2000/svg"><path d="M6 16h4V0H6zm-6 0h4V8H0zM12 5v11h4V5z"/></symbol><symbol viewBox="0 0 26 12" id="dots" xmlns="http://www.w3.org/2000/svg"><g fill-rule="nonzero" fill="#A0968B"><path d="M6.305 11.67c3.208 0 5.809-2.567 5.809-5.734S9.514.202 6.305.202C3.097.202.496 2.769.496 5.936s2.6 5.735 5.809 5.735M19.879 11.67c3.208 0 5.809-2.567 5.809-5.734S23.088.202 19.879.202c-3.208 0-5.809 2.567-5.809 5.734s2.6 5.735 5.809 5.735"/></g></symbol><symbol viewBox="0 0 14 17" id="download" xmlns="http://www.w3.org/2000/svg"><path d="M14 6h-4V0H4v6H0l7 7zM0 15v2h14v-2z"/></symbol><symbol viewBox="0 0 16 8" id="dropdown" xmlns="http://www.w3.org/2000/svg"><path d="M0 0l8 8 8-8z" fill-rule="nonzero" fill="#3B3A39"/></symbol><symbol viewBox="0 0 24 24" id="email" xmlns="http://www.w3.org/2000/svg"><path d="M20 8l-8 5-8-5V6l8 5 8-5m0-2H4c-1.11 0-2 .89-2 2v12a2 2 0 0 0 2 2h16a2 2 0 0 0 2-2V6a2 2 0 0 0-2-2z"/></symbol><symbol viewBox="0 0 26 12" id="end-of-article" xmlns="http://www.w3.org/2000/svg"><g fill-rule="nonzero" fill="#A0968B"><path d="M6.305 11.67c3.208 0 5.809-2.567 5.809-5.734S9.514.202 6.305.202C3.097.202.496 2.769.496 5.936s2.6 5.735 5.809 5.735M19.879 11.67c3.208 0 5.809-2.567 5.809-5.734S23.088.202 19.879.202c-3.208 0-5.809 2.567-5.809 5.734s2.6 5.735 5.809 5.735"/></g></symbol><symbol viewBox="0 0 4.42 14.73" id="exclamation-mark" xmlns="http://www.w3.org/2000/svg"><defs><style>.bdcls-1{fill:#f2f2f2}</style></defs><g id="bdLayer_2" data-name="Layer 2"><path class="bdcls-1" d="M1.63 9.4L0 0h4.42L2.79 9.4zm.58 1.39a2 2 0 0 1 0 3.94 2 2 0 0 1 0-3.94z" id="bdHotspots"/></g></symbol><symbol viewBox="0 0 48 48" id="facebook" xmlns="http://www.w3.org/2000/svg"><path d="M25.638 48H2.65A2.65 2.65 0 0 1 0 45.35V2.65A2.649 2.649 0 0 1 2.65 0H45.35A2.649 2.649 0 0 1 48 2.65v42.7A2.65 2.65 0 0 1 45.351 48H33.119V29.412h6.24l.934-7.244h-7.174v-4.625c0-2.098.583-3.527 3.59-3.527l3.836-.002V7.535c-.663-.088-2.94-.285-5.59-.285-5.53 0-9.317 3.376-9.317 9.575v5.343h-6.255v7.244h6.255V48z" fill="#0B0B0A" fill-rule="evenodd"/></symbol><symbol viewBox="0 0 24 24" id="facebook-simple" xmlns="http://www.w3.org/2000/svg"><path d="M17 2v4h-2c-.69 0-1 .81-1 1.5V10h3v4h-3v8h-4v-8H7v-4h3V6a4 4 0 0 1 4-4h3z"/></symbol><symbol viewBox="0 0 16 16" id="file" xmlns="http://www.w3.org/2000/svg"><path d="M14 0H2C.9 0 0 .9 0 2v12c0 1.1.9 2 2 2h12c1.1 0 2-.9 2-2V2c0-1.1-.9-2-2-2zM3 7h10v2H3V7zm0 4h6v2H3v-2zm0-8h10v2H3V3z" fill-rule="nonzero" fill="#FFF"/></symbol><symbol viewBox="0 0 16 16" id="files" xmlns="http://www.w3.org/2000/svg"><path d="M1.6 3.2H0v11.2c0 .88.72 1.6 1.6 1.6h11.2v-1.6H1.6V3.2zM14.4 0H4.8c-.88 0-1.6.72-1.6 1.6v9.6c0 .88.72 1.6 1.6 1.6h9.6c.88 0 1.6-.72 1.6-1.6V1.6c0-.88-.72-1.6-1.6-1.6zM5.6 5.6h8v1.6h-8V5.6zm0 3.2h4.8v1.6H5.6V8.8zm0-6.4h8V4h-8V2.4z" fill-rule="nonzero" fill="#A0968B"/></symbol><symbol viewBox="0 0 18 14" id="gelesen" xmlns="http://www.w3.org/2000/svg"><path d="M6.085 10.624L2.292 6.83 1 8.113l5.085 5.085L17 2.283 15.717 1l-9.632 9.624" stroke-width=".2" stroke="#000" fill="#000" fill-rule="evenodd"/></symbol><symbol viewBox="0 0 16 16" id="info" xmlns="http://www.w3.org/2000/svg"><path d="M7.2 12h1.6V7.2H7.2V12zM8 0C3.584 0 0 3.584 0 8s3.584 8 8 8 8-3.584 8-8-3.584-8-8-8zm0 14.4A6.408 6.408 0 0 1 1.6 8c0-3.528 2.872-6.4 6.4-6.4 3.528 0 6.4 2.872 6.4 6.4 0 3.528-2.872 6.4-6.4 6.4zm-.8-8.8h1.6V4H7.2v1.6z" fill-rule="nonzero" fill="#FFF"/></symbol><symbol viewBox="0 0 5.95 15.42" id="information" xmlns="http://www.w3.org/2000/svg"><defs><style>.bkcls-1{fill:#f2f2f2}</style></defs><g id="bkLayer_2" data-name="Layer 2"><path class="bkcls-1" d="M4.82 14.16c0 .52.32.58 1.13.63v.63H0v-.63c.8 0 1.12-.11 1.12-.63V8.45L0 7.9v-.46l4.2-.94h.62zM.63 2.24A2.21 2.21 0 0 1 3 0a2.24 2.24 0 0 1 2.4 2.24A2.26 2.26 0 0 1 3 4.51 2.23 2.23 0 0 1 .63 2.24z" id="bkHotspots"/></g></symbol><symbol viewBox="0 0 24 24" id="instagram" xmlns="http://www.w3.org/2000/svg"><g fill="#000" fill-rule="evenodd"><path d="M10.384.004h1.275c3.798 0 4.248.013 5.747.081 1.387.064 2.14.295 2.641.49a4.398 4.398 0 0 1 1.634 1.064c.498.498.806.972 1.065 1.635.194.501.426 1.254.49 2.64.068 1.5.082 1.95.082 5.746 0 3.795-.014 4.246-.082 5.745-.064 1.387-.296 2.14-.49 2.64a4.397 4.397 0 0 1-1.065 1.634c-.497.498-.97.806-1.634 1.063-.5.196-1.254.427-2.64.49-1.5.069-1.95.084-5.748.084-3.797 0-4.247-.015-5.747-.083-1.386-.064-2.139-.296-2.64-.49a4.405 4.405 0 0 1-1.636-1.065 4.408 4.408 0 0 1-1.064-1.634c-.195-.501-.427-1.254-.49-2.64-.068-1.5-.082-1.95-.082-5.748S.014 7.41.082 5.911c.063-1.387.295-2.14.49-2.64a4.407 4.407 0 0 1 1.064-1.636A4.414 4.414 0 0 1 3.27.57C3.773.375 4.526.144 5.912.08 7.224.02 7.732.003 10.384 0v.004zm8.867 2.361a1.706 1.706 0 1 0 0 3.414 1.706 1.706 0 0 0 0-3.415v.001zM11.66 4.36a7.304 7.304 0 1 0 .002 14.608 7.304 7.304 0 0 0-.002-14.608z"/><path d="M11.852 7.111a4.74 4.74 0 1 1 0 9.482 4.74 4.74 0 0 1 0-9.482z"/></g></symbol><symbol viewBox="0 0 18 18" id="lesezeit" xmlns="http://www.w3.org/2000/svg"><path d="M12.816 5.184A5.379 5.379 0 0 0 9 3.6V9l-3.816 3.816a5.41 5.41 0 0 0 7.641 0 5.392 5.392 0 0 0-.009-7.632zM9 0C4.032 0 0 4.032 0 9s4.032 9 9 9 9-4.032 9-9-4.032-9-9-9zm0 16.2A7.198 7.198 0 0 1 1.8 9c0-3.978 3.222-7.2 7.2-7.2s7.2 3.222 7.2 7.2-3.222 7.2-7.2 7.2z" fill="#FFF" fill-rule="evenodd"/></symbol><symbol viewBox="0 0 24 24" id="link-variant" xmlns="http://www.w3.org/2000/svg"><path d="M10.59 13.41c.41.39.41 1.03 0 1.42-.39.39-1.03.39-1.42 0a5.003 5.003 0 0 1 0-7.07l3.54-3.54a5.003 5.003 0 0 1 7.07 0 5.003 5.003 0 0 1 0 7.07l-1.49 1.49c.01-.82-.12-1.64-.4-2.42l.47-.48a2.982 2.982 0 0 0 0-4.24 2.982 2.982 0 0 0-4.24 0l-3.53 3.53a2.982 2.982 0 0 0 0 4.24m2.82-4.24c.39-.39 1.03-.39 1.42 0a5.003 5.003 0 0 1 0 7.07l-3.54 3.54a5.003 5.003 0 0 1-7.07 0 5.003 5.003 0 0 1 0-7.07l1.49-1.49c-.01.82.12 1.64.4 2.43l-.47.47a2.982 2.982 0 0 0 0 4.24 2.982 2.982 0 0 0 4.24 0l3.53-3.53a2.982 2.982 0 0 0 0-4.24.973.973 0 0 1 0-1.42z"/></symbol><symbol viewBox="0 0 284 83" id="logo-add" xmlns="http://www.w3.org/2000/svg"><g fill="#3B3A39" fill-rule="evenodd"><path d="M113.528 60.045v-.833l5.801-1.276h.861v18.541c0 .944.055 1.36.943 1.388l.667.028v1.082l-5.885.971h-.944l.084-2.608c-1.139 1.694-2.638 2.608-4.498 2.608-3.275 0-5.606-2.552-5.606-7.077 0-5.413 3.276-8.329 7.355-8.329 1.139 0 2.11.307 2.749.834v-4.552l-1.527-.777zm-3.442 11.269c0 3.414 1.222 5.747 3.387 5.747.555 0 1.081-.112 1.582-.39v-7.716c0-1.86-.529-2.86-1.971-2.86-1.97 0-2.998 2.084-2.998 5.219zM135.73 76.616c0 .667.084 1.25.751 1.25.388 0 .749-.084.943-.167l.193.748c-.915.917-2.109 1.5-3.664 1.5-1.61 0-2.774-.861-3.19-2.331-.805 1.164-2.138 2.247-4.192 2.247-2.331 0-3.969-1.332-3.969-3.719 0-2.414 1.694-3.414 3.664-4.107l4.414-1.555V67.65c0-1.276-.362-2.137-1.443-2.137-1.083 0-1.499.89-1.499 2.192 0 .64.11 1.278.249 1.944l-3.082.417c-.804-.279-1.358-.945-1.358-1.945 0-2.525 2.608-3.691 5.967-3.691 3.886 0 6.216 1.222 6.216 4.83v7.356zm-5.05.193v-5.135l-1.526.584c-.973.361-1.61.888-1.61 2.47 0 1.416.526 2.472 1.914 2.472.444 0 .777-.139 1.222-.391zM138.56 78.531l-.166-3.747h1.277c.555 2.277 1.999 3.996 4.163 3.996 1.305 0 2.36-.638 2.36-1.888 0-1.414-1.083-1.887-2.971-2.497-3.136-.972-4.829-2.276-4.829-5.108 0-3.108 2.388-4.857 5.717-4.857 1.889 0 3.581.501 4.774 1.277v3.331h-1.193c-.333-1.832-1.553-3.442-3.496-3.442-1.194 0-2 .666-2 1.722 0 1.166.833 1.636 2.666 2.275 3.33 1.111 5.135 2.249 5.135 5.274 0 3.248-2.416 5.08-6.163 5.08-2.303 0-4.08-.555-5.274-1.416M153.603 79.502c-1.167-.277-1.998-1-1.998-2.414 0-1.527 1.165-2.499 2.663-2.499 1.804 0 2.943 1.388 2.943 3.443 0 2.998-1.998 4.857-5.689 4.968v-1.138c1.887-.278 3.051-.832 3.22-2.36h-1.139M184.105 67.539c.138-.333.194-.637.194-.859 0-.584-.499-.751-1.583-.89v-1.081h4.803v1.081c-.971.306-1.165.499-1.416 1.112l-5.469 12.878h-1.665l-3.273-8.577-3.887 8.577h-1.638l-5.829-12.878c-.277-.613-.443-.806-1.416-1.112v-1.081h8.328v1.081c-.914.139-1.306.361-1.306.862 0 .221.084.526.223.887l2.638 6.468 2.081-4.636-.943-2.469c-.224-.613-.528-.89-1.277-1.112v-1.081h8.214v1.081c-1.164.139-1.72.25-1.72.945 0 .222.056.471.168.804l2.302 6.191 2.471-6.191M200.314 76.616c0 .667.083 1.25.748 1.25.39 0 .751-.084.945-.167l.194.748c-.917.917-2.109 1.5-3.664 1.5-1.609 0-2.776-.861-3.192-2.331-.804 1.164-2.137 2.247-4.191 2.247-2.332 0-3.968-1.332-3.968-3.719 0-2.414 1.691-3.414 3.664-4.107l4.412-1.555V67.65c0-1.276-.361-2.137-1.443-2.137s-1.5.89-1.5 2.192c0 .64.111 1.278.252 1.944l-3.082.417c-.806-.279-1.36-.945-1.36-1.945 0-2.525 2.609-3.691 5.967-3.691 3.887 0 6.218 1.222 6.218 4.83v7.356zm-5.052.193v-5.135l-1.527.584c-.971.361-1.61.888-1.61 2.47 0 1.416.529 2.472 1.915 2.472.446 0 .779-.139 1.222-.391zM203.142 78.531l-.167-3.747h1.278c.554 2.277 1.998 3.996 4.163 3.996 1.304 0 2.36-.638 2.36-1.888 0-1.414-1.083-1.887-2.97-2.497-3.137-.972-4.831-2.276-4.831-5.108 0-3.108 2.389-4.857 5.718-4.857 1.889 0 3.581.501 4.775 1.277v3.331h-1.194c-.333-1.832-1.554-3.442-3.496-3.442-1.194 0-2 .666-2 1.722 0 1.166.833 1.636 2.665 2.275 3.332 1.111 5.135 2.249 5.135 5.274 0 3.248-2.416 5.08-6.162 5.08-2.303 0-4.08-.555-5.274-1.416M227.455 77.088c0 1.193.61 1.303 2.22 1.497v1.084h-8.882v-1.084c1.111-.083 1.555-.194 1.555-1.081V66.206h-1.998v-1.109l1.998-.528v-.528c0-4.217 2.887-6.105 6.495-6.105 2.969 0 4.301.998 4.301 2.692 0 .778-.415 1.443-1.028 1.748h-2.607c.083-.387.139-.803.139-1.303 0-.972-.139-1.916-.999-1.916-.833 0-1.194.695-1.194 1.944v3.608h3.248v1.497h-3.248v10.882"/><path d="M244.69 70.51v.693h-8.854c-.057 3.303 1.777 5.357 4.303 5.357 1.776 0 3.08-.638 4.135-2.026l.527.333c-.749 3.053-2.886 5.08-6.383 5.08-4.109 0-7.216-2.748-7.216-7.411 0-4.941 3.413-8.106 7.411-8.106 4.023 0 6.077 2.555 6.077 6.08m-8.827-.582h4.442c0-2.693-.528-4.332-2.026-4.332-1.527 0-2.277 1.749-2.416 4.332M247.159 60.822l-1.526-.777v-.833l5.801-1.276h.861v9.27c1.053-1.332 2.635-2.776 5.162-2.776 2.663 0 4.191 1.527 4.191 4.553v8.521c0 .887.443.998 1.554 1.082v1.082h-8.161v-1.082c1.112-.084 1.472-.195 1.472-1.082v-8.105c0-1.22-.416-1.943-1.859-1.943-.888 0-1.666.25-2.359.61v9.438c0 .887.359.998 1.471 1.082v1.082h-8.161v-1.082c1.11-.084 1.554-.195 1.554-1.082V60.822M270.639 77.504c0 .888.445.998 1.555 1.081v1.084h-8.243v-1.084c1.109-.083 1.552-.193 1.552-1.081V60.822l-1.524-.776v-.834l5.801-1.276h.859v19.568M279.465 64.709h3.246v1.497h-3.246v9.189c0 1.331.527 1.915 1.583 1.915.721 0 1.33-.249 1.998-.694l.416.611c-1.057 1.721-2.61 2.719-4.83 2.719-2.554 0-4.33-1.278-4.33-4.551v-9.189h-1.581v-.915c2.22-.834 4.218-2.441 5.661-4.359h1.083v3.777M159.692 24.253c0-3.221-1.425-5.263-4.459-5.263-2.973 0-4.582 2.104-4.582 5.263v20.868h-8.298V11.992h8.298v2.476c.806-.991 2.91-2.848 6.998-2.848 7.739 0 10.341 5.264 10.341 11.642v21.859h-8.298V24.253M198.328 41.839c-1.981 2.105-5.573 3.839-9.784 3.839-10.28 0-17.091-7.059-17.091-17.029 0-9.599 6.811-17.215 16.782-17.215 4.21 0 7.492 1.362 9.535 3.22V.98h8.299v44.141h-7.741v-3.282zm-9.412-3.592c5.572 0 9.102-4.21 9.102-9.722 0-5.511-3.653-9.722-9.102-9.722-5.574 0-9.165 4.211-9.165 9.722 0 5.574 3.778 9.722 9.165 9.722zM236.034 11.991v20.436c0 7.863-4.396 13.065-12.632 13.065-9.103 0-12.632-5.202-12.632-13.065V11.991h8.297v20.373c0 3.22 1.363 5.264 4.335 5.264s4.335-2.044 4.335-5.264V11.991h8.297M266.249 45.121h-8.299V24.253c0-3.159-1.485-5.264-4.395-5.264-2.973 0-4.521 2.105-4.521 5.387v20.745h-8.298v-33.13h8.298v2.477c.867-1.052 2.91-2.849 7.121-2.849 3.902 0 6.378 1.487 7.865 3.592 1.486-1.733 3.964-3.592 8.298-3.592 8.173 0 11.147 5.265 11.147 11.643v21.859h-8.299V24.253c0-3.221-1.486-5.264-4.458-5.264-2.972 0-4.459 2.291-4.459 5.264v20.868M133.015 31.713h5.876c.15-.988.242-2.006.242-3.064 0-9.599-7.121-17.216-17.09-17.216-9.971 0-17.092 7.617-17.092 17.216 0 9.97 6.812 17.029 17.092 17.029 8.341 0 14.399-4.65 16.386-11.731h-8.992c-1.509 2.593-4.138 4.279-7.394 4.279-4.1 0-7.219-2.696-8.338-6.513h19.31zM113.698 25.4c1.11-3.797 4.223-6.567 8.345-6.567 4.152 0 7.246 2.77 8.347 6.567h-16.692zM55.79 41.839c-1.982 2.105-5.574 3.839-9.785 3.839-10.279 0-17.091-7.059-17.091-17.029 0-9.599 6.812-17.215 16.781-17.215 4.211 0 7.493 1.362 9.537 3.22V.98h8.298v44.141h-7.74v-3.282zm-9.413-3.592c5.573 0 9.103-4.21 9.103-9.722 0-5.511-3.654-9.722-9.103-9.722-5.573 0-9.164 4.211-9.164 9.722 0 5.574 3.776 9.722 9.164 9.722zM93.992 41.839c-1.982 2.105-5.574 3.839-9.785 3.839-10.28 0-17.092-7.059-17.092-17.029 0-9.599 6.812-17.215 16.783-17.215 4.21 0 7.492 1.362 9.536 3.22V.98h8.298v44.141h-7.74v-3.282zm-9.413-3.592c5.573 0 9.103-4.21 9.103-9.722 0-5.511-3.653-9.722-9.103-9.722-5.573 0-9.165 4.211-9.165 9.722 0 5.574 3.778 9.722 9.165 9.722zM12.942 11.62c-7.423 0-11.162 3.779-11.673 9.529h7.738c.269-1.555 1.324-2.965 3.935-2.965 3.097 0 4.335 2.043 4.335 4.891v1.673c-.867-.557-2.911-1.363-5.883-1.363C4.521 23.385 0 28.092 0 34.284c0 6.874 4.893 11.27 11.519 11.27 3.838 0 6.068-1.547 6.996-2.539v2.106h6.936V24.253c0-7.37-2.972-12.633-12.509-12.633m-.309 27.37c-2.849 0-4.831-1.981-4.831-4.767 0-2.663 1.92-4.707 4.768-4.707 2.787 0 4.831 1.92 4.831 4.707 0 2.786-2.044 4.767-4.768 4.767"/></g></symbol><symbol viewBox="0 0 12.92 12.92" id="magnifying-glass" xmlns="http://www.w3.org/2000/svg"><defs><style>.bpcls-1{fill:#f2f2f2}</style></defs><g id="bpLayer_2" data-name="Layer 2"><g id="bpHotspots"><path class="bpcls-1" d="M12.57 10.85l-3-3A5.58 5.58 0 0 1 7.89 9.6l3 3a1.22 1.22 0 1 0 1.72-1.72zM9.69 4.85a4.85 4.85 0 1 0-4.84 4.84 4.85 4.85 0 0 0 4.84-4.84zM4.85 8.48a3.64 3.64 0 1 1 3.63-3.63 3.64 3.64 0 0 1-3.63 3.63z"/><path class="bpcls-1" d="M2 4.85h.81a2 2 0 0 1 2-2V2A2.83 2.83 0 0 0 2 4.85z"/></g></g></symbol><symbol viewBox="0 0 44 44" id="mail" xmlns="http://www.w3.org/2000/svg"><g fill="none" fill-rule="evenodd"><circle stroke-width="2" cx="22" cy="22" r="21" stroke="#000"/><path d="M31.25 14h-18a2.247 2.247 0 0 0-2.239 2.25L11 29.75A2.257 2.257 0 0 0 13.25 32h18a2.257 2.257 0 0 0 2.25-2.25v-13.5A2.257 2.257 0 0 0 31.25 14zm0 4.5l-9 5.625-9-5.625v-2.25l9 5.625 9-5.625v2.25z" fill="#000"/></g></symbol><symbol viewBox="0 0 9.53 15.25" id="marker" xmlns="http://www.w3.org/2000/svg"><defs><style>.brcls-1{fill:#f2f2f2}</style></defs><g id="brLayer_2" data-name="Layer 2"><path class="brcls-1" d="M4.77 0A4.76 4.76 0 0 0 0 4.77c0 4.76 4.77 10.48 4.77 10.48S9.53 9.53 9.53 4.77A4.76 4.76 0 0 0 4.77 0zm0 8.81a3.35 3.35 0 1 1 3.34-3.35 3.35 3.35 0 0 1-3.34 3.35z" id="brHotspots"/></g></symbol><symbol viewBox="0 0 24 24" id="mute" xmlns="http://www.w3.org/2000/svg"><path d="M7 9v6h4l5 5V4l-5 5H7z"/><path d="M0 0h24v24H0z" fill="none"/></symbol><symbol viewBox="0 0 11.18 12.58" id="network" xmlns="http://www.w3.org/2000/svg"><defs><style>.btcls-1{fill:#f2f2f2}</style></defs><g id="btLayer_2" data-name="Layer 2"><path class="btcls-1" d="M9.09 8.39a2.1 2.1 0 0 0-1.28.43L4.16 6.63a1.94 1.94 0 0 0 0-.68l3.65-2.19A2.1 2.1 0 1 0 7 2.1a2 2 0 0 0 0 .34L3.37 4.63a2.08 2.08 0 0 0-1.27-.44 2.1 2.1 0 0 0 0 4.2A2.08 2.08 0 0 0 3.37 8L7 10.14a2 2 0 0 0 0 .34 2.1 2.1 0 1 0 2.1-2.09z" id="btHotspots"/></g></symbol><symbol viewBox="0 0 16 19" id="newsletter" xmlns="http://www.w3.org/2000/svg"><path d="M6.222 17.19c0 1 .795 1.81 1.778 1.81s1.778-.81 1.778-1.81H6.222zm7.894-3.781V8.143c0-2.94-2-5.402-4.703-6.053v-.651C9.413.642 8.783 0 8 0c-.782 0-1.413.642-1.413 1.439v.651c-2.703.651-4.703 3.112-4.703 6.053v5.266L0 15.327v.959h16v-.96l-1.884-1.917zm-2.56-3.453H8.889v2.71H7.11v-2.71H4.444V8.139h2.667V5.43H8.89v2.71h2.667v1.817z" fill="#000" fill-rule="evenodd"/></symbol><symbol viewBox="0 0 24 24" id="pause" xmlns="http://www.w3.org/2000/svg"><path d="M6 19h4V5H6v14zm8-14v14h4V5h-4z"/><path d="M0 0h24v24H0z" fill="none"/></symbol><symbol viewBox="0 0 11.18 11.21" id="pie" xmlns="http://www.w3.org/2000/svg"><defs><style>.bwcls-1{fill:#f2f2f2}</style></defs><g id="bwLayer_2" data-name="Layer 2"><g id="bwHotspots"><path class="bwcls-1" d="M4.81 6.41h4.8a4.81 4.81 0 1 1-4.8-4.81z"/><path class="bwcls-1" d="M6.38 4.81h4.8A4.8 4.8 0 0 0 6.38 0z"/></g></g></symbol><symbol viewBox="0 0 24 24" id="play" xmlns="http://www.w3.org/2000/svg"><path d="M8 5v14l11-7z"/><path d="M0 0h24v24H0z" fill="none"/></symbol><symbol viewBox="0 0 40 39" id="plus" xmlns="http://www.w3.org/2000/svg"><path fill="none" d="M-1-1h42v41H-1z"/><g><path stroke="null" d="M16.297 39.065h7.479V23.08h16.172v-7.011H23.776V.084h-7.479v15.985H.125v7.011h16.172z"/></g></symbol><symbol viewBox="0 0 14 18" id="projekt-abonnieren" xmlns="http://www.w3.org/2000/svg"><path d="M7 17.063c.963 0 1.75-.788 1.75-1.75h-3.5c0 .962.787 1.75 1.75 1.75zm5.25-5.25V7.436c0-2.686-1.426-4.935-3.938-5.53v-.595A1.31 1.31 0 0 0 7 0a1.31 1.31 0 0 0-1.313 1.313v.595c-2.502.595-3.937 2.835-3.937 5.53v4.375L0 13.563v.874h14v-.874l-1.75-1.75zm-1.75.874h-7v-5.25C3.5 5.268 4.821 3.5 7 3.5c2.179 0 3.5 1.768 3.5 3.938v5.25z" fill-rule="nonzero" fill="#FFF"/></symbol><symbol viewBox="0 0 14 18" id="projekt-abonniert" xmlns="http://www.w3.org/2000/svg"><path d="M7 17.063c.963 0 1.75-.788 1.75-1.75h-3.5c0 .962.779 1.75 1.75 1.75zm5.25-5.25V7.436c0-2.686-1.435-4.935-3.938-5.53v-.595A1.31 1.31 0 0 0 7 0a1.31 1.31 0 0 0-1.313 1.313v.595c-2.51.595-3.937 2.835-3.937 5.53v4.375L0 13.563v.874h14v-.874l-1.75-1.75z" fill-rule="nonzero" fill="#FFF"/></symbol><symbol viewBox="0 0 20 20" id="refresh" xmlns="http://www.w3.org/2000/svg"><path d="M17 3a9.53 9.53 0 0 0-7-3 10 10 0 0 0 0 20 10 10 0 0 0 9.63-7.5H17a7.45 7.45 0 0 1-7 5 7.5 7.5 0 0 1 0-15 7.26 7.26 0 0 1 5.25 2.25l-4 4H20V0z"/></symbol><symbol viewBox="0 0 14 16" id="register" xmlns="http://www.w3.org/2000/svg"><path d="M12.444 1.556h-3.25A2.341 2.341 0 0 0 7 0a2.341 2.341 0 0 0-2.193 1.556H1.556C.7 1.556 0 2.256 0 3.11V14c0 .856.7 1.556 1.556 1.556h10.888c.856 0 1.556-.7 1.556-1.556V3.111c0-.855-.7-1.555-1.556-1.555zM7 1.556a.78.78 0 0 1 .778.777.78.78 0 0 1-.778.778.78.78 0 0 1-.778-.778A.78.78 0 0 1 7 1.556zm1.556 10.888H3.11V10.89h5.445v1.555zm2.333-3.11H3.11V7.777h7.778v1.555zm0-3.112H3.11V4.667h7.778v1.555z" fill="#A0968B" fill-rule="evenodd"/></symbol><symbol viewBox="0 0 24 24" id="restore" xmlns="http://www.w3.org/2000/svg"><path d="M0 0h24v24H0z" fill="none"/><path d="M13 3a9 9 0 0 0-9 9H1l3.89 3.89.07.14L9 12H6c0-3.87 3.13-7 7-7s7 3.13 7 7-3.13 7-7 7c-1.93 0-3.68-.79-4.94-2.06l-1.42 1.42A8.954 8.954 0 0 0 13 21a9 9 0 0 0 0-18zm-1 5v5l4.28 2.54.72-1.21-3.5-2.08V8H12z"/></symbol><symbol viewBox="0 0 16 16" id="rss" xmlns="http://www.w3.org/2000/svg"><circle cx="2.24" cy="13.76" r="2.24"/><path d="M0 0v2.91A13.09 13.09 0 0 1 13.09 16H16A16 16 0 0 0 0 0zm0 5.82v2.91A7.28 7.28 0 0 1 7.27 16h2.91A10.18 10.18 0 0 0 0 5.82z"/></symbol><symbol viewBox="0 0 35 36" id="search" xmlns="http://www.w3.org/2000/svg"><path d="M25 22.79h-1.58l-.56-.541c1.96-2.28 3.14-5.24 3.14-8.46 0-7.18-5.82-13-13-13s-13 5.82-13 13 5.82 13 13 13c3.22 0 6.18-1.18 8.46-3.14l.54.56v1.58l10 9.979 2.98-2.98L25 22.79zm-12 0c-4.98 0-9-4.02-9-9s4.02-9 9-9 9 4.02 9 9-4.02 9-9 9z" fill="#000" fill-rule="evenodd"/></symbol><symbol viewBox="0 0 20 14" id="send" xmlns="http://www.w3.org/2000/svg"><path d="M19.74.54a1.38 1.38 0 0 0-1.1-.54 1.4 1.4 0 0 0-.33 0L1 4.28a1.34 1.34 0 0 0-1 1.1 1.32 1.32 0 0 0 .66 1.33l3.65 2.14v4.69a.46.46 0 0 0 .27.42.49.49 0 0 0 .5-.05l3.43-2.6 2.81 1.65a1.39 1.39 0 0 0 1.86-.44L19.8 2a1.3 1.3 0 0 0-.06-1.46zm-7.8 10.94L7.66 9 12 5.32a.16.16 0 0 0 0-.2.17.17 0 0 0-.2-.07L5.22 7.54 2 5.66l16.1-4z"/></symbol><symbol viewBox="0 0 10.1 10.1" id="single-dot" xmlns="http://www.w3.org/2000/svg"><defs><style>.chcls-1{fill:#f2f2f2}</style></defs><g id="chLayer_2" data-name="Layer 2"><path class="chcls-1" d="M5.05 0a5 5 0 0 1 5.05 5.1 4.93 4.93 0 0 1-5 5 4.93 4.93 0 0 1-5-5A5 5 0 0 1 5.05 0z" id="chHotspots"/></g></symbol><symbol viewBox="0 0 48 48" id="slack" xmlns="http://www.w3.org/2000/svg"><path d="M45.99 17.402C41.045.908 33.897-2.939 17.403 2.01.91 6.956-2.939 14.104 2.01 30.598 6.958 47.09 14.105 50.939 30.598 45.99c16.494-4.949 20.341-12.096 15.393-28.589M37.649 28.11l-3.11 1.041 1.078 3.22a2.487 2.487 0 1 1-4.718 1.579l-1.078-3.218-6.413 2.148 1.077 3.218a2.488 2.488 0 1 1-4.717 1.58l-1.079-3.218-3.11 1.042a2.489 2.489 0 0 1-1.581-4.719l3.112-1.042-2.069-6.173-3.11 1.043a2.488 2.488 0 0 1-3.15-1.57 2.488 2.488 0 0 1 1.57-3.15l3.11-1.042-1.078-3.217a2.488 2.488 0 1 1 4.719-1.58l1.077 3.218 6.414-2.148-1.078-3.218a2.49 2.49 0 0 1 4.719-1.58l1.077 3.218 3.11-1.042a2.488 2.488 0 1 1 1.58 4.719l-3.11 1.04 2.068 6.175 3.11-1.043a2.49 2.49 0 0 1 1.58 4.72zm-17.89-6.122l2.068 6.173 6.414-2.148-2.067-6.173-6.414 2.148z" fill="#0B0B0A" fill-rule="evenodd"/></symbol><symbol viewBox="0 0 48 45" id="snapchat" xmlns="http://www.w3.org/2000/svg"><path d="M24.462 0H24.342l-.825.009c-1.066 0-3.198.15-5.488 1.158a12.228 12.228 0 0 0-3.5 2.314c-1.208 1.144-2.193 2.554-2.925 4.192-1.073 2.398-.818 6.438-.614 9.684l.001.005.066 1.065c-.157.072-.412.148-.788.148-.605 0-1.325-.193-2.138-.573a1.917 1.917 0 0 0-.814-.167c-.485 0-.995.142-1.438.401-.557.327-.917.788-1.015 1.299-.064.338-.061 1.006.683 1.684.41.373 1.011.717 1.788 1.023.204.08.445.156.702.237.888.282 2.234.708 2.584 1.53.178.418.102.967-.226 1.631-.009.018-.018.036-.025.055-.082.19-.847 1.918-2.416 3.74-.891 1.035-1.873 1.901-2.917 2.573a10.744 10.744 0 0 1-4.095 1.595 1.122 1.122 0 0 0-.94 1.169c.01.165.048.33.116.488l.001.003c.23.535.761.99 1.625 1.39 1.056.489 2.635.9 4.694 1.222.104.197.212.693.286 1.032.079.36.16.732.277 1.126.125.427.45.937 1.287.937.317 0 .681-.072 1.104-.153.618-.121 1.463-.286 2.518-.286.585 0 1.191.051 1.801.152 1.176.196 2.19.91 3.363 1.737 1.717 1.21 3.661 2.58 6.63 2.58.082 0 .163-.003.243-.008a7.6 7.6 0 0 0 .348.008c2.971 0 4.914-1.37 6.63-2.58l.002-.002c1.174-.826 2.186-1.54 3.362-1.735.61-.1 1.216-.152 1.801-.152 1.008 0 1.806.128 2.519.267.465.09.826.135 1.103.135h.056c.611 0 1.06-.335 1.232-.92.114-.386.195-.748.276-1.115.07-.318.181-.828.285-1.027 2.06-.323 3.639-.733 4.695-1.222.862-.399 1.393-.852 1.624-1.385.069-.16.11-.325.118-.493a1.122 1.122 0 0 0-.94-1.17c-6.417-1.054-9.308-7.628-9.427-7.907a.8.8 0 0 0-.026-.055c-.328-.664-.404-1.212-.226-1.63.35-.823 1.695-1.249 2.584-1.53.257-.081.5-.158.702-.238.876-.344 1.502-.718 1.915-1.143.493-.507.589-.992.583-1.31-.015-.768-.604-1.45-1.541-1.785-.317-.13-.678-.199-1.045-.199-.25 0-.62.034-.971.198-.751.35-1.424.541-2 .569a1.814 1.814 0 0 1-.663-.146l.057-.928.009-.138c.205-3.248.46-7.29-.612-9.69-.736-1.645-1.724-3.058-2.937-4.205a12.26 12.26 0 0 0-3.513-2.314A14.01 14.01 0 0 0 24.462 0" fill="#0B0B0A" fill-rule="evenodd"/></symbol><symbol viewBox="0 0 14.54 10.43" id="speaker" xmlns="http://www.w3.org/2000/svg"><defs><style/></defs><g id="ckspeaker" data-name="Layer 2"><g id="ckspeaker"><path class="ckcls-1" d="M7.52 0A.66.66 0 0 0 7 .2L3.48 2.48H.68a.68.68 0 0 0-.68.68v4.1a.66.66 0 0 0 .2.48.66.66 0 0 0 .48.26h2.8L7 10.22a.63.63 0 0 0 .48.21.7.7 0 0 0 .68-.69V.68A.68.68 0 0 0 7.52 0zM11.35 6.72a2.71 2.71 0 0 0 0-3 2.49 2.49 0 0 0-1.2-1 .7.7 0 0 0-.75.15.66.66 0 0 0-.2.48.55.55 0 0 0 .13.38 1.16 1.16 0 0 0 .31.27 3.9 3.9 0 0 1 .36.25 1 1 0 0 1 .31.37 1.28 1.28 0 0 1 .13.61 1.23 1.23 0 0 1-.13.61 1 1 0 0 1-.31.36l-.36.25a1.13 1.13 0 0 0-.31.26.57.57 0 0 0-.13.38.68.68 0 0 0 .2.49.69.69 0 0 0 .48.2.54.54 0 0 0 .27-.06 2.49 2.49 0 0 0 1.2-1z"/><path class="ckcls-1" d="M11.23.18a.92.92 0 0 0-.28 0 .68.68 0 0 0-.68.68.67.67 0 0 0 .42.63c.39.21.66.37.81.47a4.1 4.1 0 0 1 1.23 1.45 4 4 0 0 1 .44 1.85 4 4 0 0 1-1.67 3.3 6.59 6.59 0 0 1-.81.47.69.69 0 0 0-.42.63.66.66 0 0 0 .2.48.66.66 0 0 0 .76.15 5.22 5.22 0 0 0 2.4-2 5.36 5.36 0 0 0 .91-3 5.32 5.32 0 0 0-.91-3 5.19 5.19 0 0 0-2.4-2.11z"/></g></g></symbol><symbol viewBox="0 0 24 24" id="star" xmlns="http://www.w3.org/2000/svg"><path d="M0 0h24v24H0z" fill="none"/><path d="M12 17.27L18.18 21l-1.64-7.03L22 9.24l-7.19-.61L12 2 9.19 8.63 2 9.24l5.46 4.73L5.82 21z"/><path d="M0 0h24v24H0z" fill="none"/></symbol><symbol viewBox="0 0 24 24" id="star-border" xmlns="http://www.w3.org/2000/svg"><path d="M22 9.24l-7.19-.62L12 2 9.19 8.63 2 9.24l5.46 4.73L5.82 21 12 17.27 18.18 21l-1.63-7.03L22 9.24zM12 15.4l-3.76 2.27 1-4.28-3.32-2.88 4.38-.38L12 6.1l1.71 4.04 4.38.38-3.32 2.88 1 4.28L12 15.4z"/><path d="M0 0h24v24H0z" fill="none"/></symbol><symbol viewBox="0 0 44 44" id="telegram" xmlns="http://www.w3.org/2000/svg"><g fill="none" fill-rule="evenodd"><circle cx="22" cy="22" r="21" stroke-width="2" stroke="#000"/><path d="M17.52 26.039l-.34 5.098c.5 0 .721-.229 1-.5l2.402-2.336 4.998 3.692c.92.508 1.584.245 1.813-.854l3.28-15.46c.337-1.347-.513-1.958-1.393-1.558l-19.265 7.428c-1.315.528-1.307 1.261-.24 1.588l4.945 1.543 11.445-7.22c.54-.328 1.036-.152.63.21l-9.275 8.368z" fill="#000"/></g></symbol><symbol viewBox="0 0 22 18" id="tv" xmlns="http://www.w3.org/2000/svg"><path d="M20 0H2C.9 0 0 .9 0 2v12c0 1.1.9 2 2 2h5v2h8v-2h5c1.1 0 1.99-.9 1.99-2L22 2c0-1.1-.9-2-2-2zM2 2h18v12H2V2z" fill-rule="nonzero" fill="#FFF"/></symbol><symbol viewBox="0 0 32 32" id="twitter" xmlns="http://www.w3.org/2000/svg"><path d="M20.046 3.071c-2.89 1.052-4.716 3.764-4.509 6.732l.07 1.145-1.156-.14c-4.207-.537-7.884-2.36-11.006-5.423L1.919 3.866l-.393 1.122c-.832 2.501-.3 5.143 1.433 6.92.925.982.716 1.122-.878.537-.555-.186-1.041-.327-1.087-.257-.161.164.393 2.291.832 3.133.601 1.17 1.826 2.314 3.168 2.993l1.133.537-1.341.023c-1.294 0-1.341.023-1.202.515.462 1.519 2.289 3.133 4.323 3.834l1.433.49-1.248.748a12.962 12.962 0 0 1-6.197 1.729c-1.04.023-1.895.117-1.895.188 0 .233 2.821 1.541 4.462 2.057 4.925 1.519 10.775.864 15.168-1.73 3.122-1.847 6.242-5.517 7.7-9.071.787-1.892 1.572-5.353 1.572-7.011 0-1.076.07-1.216 1.364-2.501.764-.748 1.48-1.566 1.619-1.8.232-.445.207-.445-.971-.047-1.965.702-2.243.608-1.271-.444.716-.748 1.572-2.104 1.572-2.501 0-.07-.346.046-.74.257-.416.232-1.341.583-2.035.793l-1.248.398-1.133-.772c-.625-.42-1.502-.888-1.965-1.028-1.18-.327-2.984-.281-4.048.093z"/></symbol><symbol viewBox="0 0 20 14" id="upload" xmlns="http://www.w3.org/2000/svg"><path d="M16.125 5.033A6.242 6.242 0 0 0 10 0a6.246 6.246 0 0 0-5.542 3.367A4.995 4.995 0 0 0 0 8.333c0 2.759 2.242 5 5 5h10.833c2.3 0 4.167-1.866 4.167-4.166 0-2.2-1.708-3.984-3.875-4.134zM11.667 7.5v3.333H8.333V7.5h-2.5L10 3.333 14.167 7.5h-2.5z" fill="#A0968B" fill-rule="evenodd"/></symbol><symbol viewBox="0 0 18 12" id="video" xmlns="http://www.w3.org/2000/svg"><path d="M14 4.5V1a1 1 0 0 0-1-1H1a1 1 0 0 0-1 1v10a1 1 0 0 0 1 1h12a1 1 0 0 0 1-1V7.5l4 4V.5z"/></symbol><symbol viewBox="0 0 24 24" id="volume" xmlns="http://www.w3.org/2000/svg"><path d="M3 9v6h4l5 5V4L7 9H3zm13.5 3A4.5 4.5 0 0 0 14 7.97v8.05c1.48-.73 2.5-2.25 2.5-4.02zM14 3.23v2.06c2.89.86 5 3.54 5 6.71s-2.11 5.85-5 6.71v2.06c4.01-.91 7-4.49 7-8.77s-2.99-7.86-7-8.77z"/><path d="M0 0h24v24H0z" fill="none"/></symbol><symbol viewBox="0 0 48 48" id="whatsapp" xmlns="http://www.w3.org/2000/svg"><path d="M23.993 0h.014C37.237 0 48 10.766 48 24S37.238 48 24.007 48a23.81 23.81 0 0 1-13.203-3.964L1.58 46.984l2.99-8.917A23.824 23.824 0 0 1 0 24C0 10.765 10.762 0 23.993 0zm-6.7 12.19c-.466-1.114-.818-1.156-1.523-1.185a13.55 13.55 0 0 0-.804-.027c-.918 0-1.877.268-2.455.86-.705.72-2.454 2.398-2.454 5.841s2.51 6.773 2.849 7.239c.353.465 4.895 7.632 11.947 10.553 5.515 2.286 7.152 2.074 8.407 1.806 1.834-.395 4.133-1.75 4.711-3.386.579-1.637.579-3.034.41-3.33-.17-.296-.636-.465-1.34-.818-.706-.353-4.134-2.046-4.783-2.272-.634-.24-1.24-.155-1.72.522-.677.946-1.34 1.905-1.876 2.483-.423.452-1.115.509-1.693.268-.776-.324-2.948-1.086-5.628-3.47-2.074-1.849-3.484-4.148-3.893-4.84-.41-.705-.042-1.114.282-1.495.353-.438.691-.748 1.044-1.157.352-.41.55-.621.776-1.1.24-.466.07-.946-.1-1.3-.168-.352-1.579-3.795-2.157-5.191z"/></symbol><symbol viewBox="0 0 20 14" id="whatsapp-hinzufuegen" xmlns="http://www.w3.org/2000/svg"><path d="M12 4H0v2h12V4zm0-4H0v2h12V0zm4 8V4h-2v4h-4v2h4v4h2v-4h4V8h-4zM0 10h8V8H0v2z" fill-rule="nonzero" fill="#FFF"/></symbol><symbol viewBox="0 0 24 24" id="whatsapp-outline" xmlns="http://www.w3.org/2000/svg"><path d="M16.75 13.96c.25.13.41.2.46.3.06.11.04.61-.21 1.18-.2.56-1.24 1.1-1.7 1.12-.46.02-.47.36-2.96-.73-2.49-1.09-3.99-3.75-4.11-3.92-.12-.17-.96-1.38-.92-2.61.05-1.22.69-1.8.95-2.04.24-.26.51-.29.68-.26h.47c.15 0 .36-.06.55.45l.69 1.87c.06.13.1.28.01.44l-.27.41-.39.42c-.12.12-.26.25-.12.5.12.26.62 1.09 1.32 1.78.91.88 1.71 1.17 1.95 1.3.24.14.39.12.54-.04l.81-.94c.19-.25.35-.19.58-.11l1.67.88M12 2a10 10 0 0 1 10 10 10 10 0 0 1-10 10c-1.97 0-3.8-.57-5.35-1.55L2 22l1.55-4.65A9.969 9.969 0 0 1 2 12 10 10 0 0 1 12 2m0 2a8 8 0 0 0-8 8c0 1.72.54 3.31 1.46 4.61L4.5 19.5l2.89-.96A7.95 7.95 0 0 0 12 20a8 8 0 0 0 8-8 8 8 0 0 0-8-8z"/></symbol><symbol viewBox="0 0 48 34" id="youtube" xmlns="http://www.w3.org/2000/svg"><path d="M19.044 23.27l-.001-13.582 12.968 6.814-12.967 6.768zM47.52 7.334s-.47-3.33-1.908-4.798C43.787.61 41.74.601 40.803.49 34.086 0 24.01 0 24.01 0h-.02S13.914 0 7.197.49C6.258.6 4.213.61 2.387 2.535.947 4.003.48 7.334.48 7.334S0 11.247 0 15.158v3.668c0 3.912.48 7.823.48 7.823s.468 3.331 1.906 4.798c1.827 1.926 4.226 1.866 5.294 2.067C11.52 33.885 24 34 24 34s10.086-.015 16.803-.505c.938-.113 2.984-.122 4.809-2.048 1.438-1.467 1.908-4.798 1.908-4.798s.48-3.91.48-7.823v-3.668c0-3.911-.48-7.824-.48-7.824z" fill="#0B0B0A" fill-rule="evenodd"/></symbol><symbol viewBox="0 0 18 18" id="zoom-in" xmlns="http://www.w3.org/2000/svg"><g fill="#000" fill-rule="evenodd"><path d="M12.5 11h-.79l-.28-.27A6.471 6.471 0 0 0 13 6.5 6.5 6.5 0 1 0 6.5 13c1.61 0 3.09-.59 4.23-1.57l.27.28v.79l5 4.99L17.49 16l-4.99-5zm-6 0C4.01 11 2 8.99 2 6.5S4.01 2 6.5 2 11 4.01 11 6.5 8.99 11 6.5 11z"/><path d="M9 7H7v2H6V7H4V6h2V4h1v2h2v1z"/></g></symbol><symbol viewBox="0 0 18 18" id="zoom-out" xmlns="http://www.w3.org/2000/svg"><path d="M12.5 11h-.79l-.28-.27A6.471 6.471 0 0 0 13 6.5 6.5 6.5 0 1 0 6.5 13c1.61 0 3.09-.59 4.23-1.57l.27.28v.79l5 4.99L17.49 16l-4.99-5zm-6 0C4.01 11 2 8.99 2 6.5S4.01 2 6.5 2 11 4.01 11 6.5 8.99 11 6.5 11zM4 6h5v1H4V6z" fill="#000" fill-rule="evenodd"/></symbol></svg>