<?xml version="1.0" encoding="UTF-8"?>
<svg width="284px" height="83px" viewBox="0 0 284 83"  xmlns="http://www.w3.org/2000/svg" xmlns:xlink="http://www.w3.org/1999/xlink">
    <!-- Generator: Sketch 46.2 (44496) - http://www.bohemiancoding.com/sketch -->
    <title>Addendum Logo Combination Black</title>
    <desc>Created with Sketch.</desc>
 
    <g id="Page-2" stroke="none" stroke-width="1" fill="none" fill-rule="evenodd">
        <g id="Header-Startseite-offen" transform="translate(-117.000000, -50.000000)" fill="#FFFFFF">
            <g id="HEADER-FULL">
                <g id="HEADER" transform="translate(115.000000, 50.000000)">
                    <g id="Addendum-Logo-Combination-Black" transform="translate(2.000000, 0.000000)">
                        <path d="M113.528,60.045 L113.528,59.212 L119.329,57.936 L120.19,57.936 L120.19,76.477 C120.19,77.421 120.245,77.837 121.133,77.865 L121.8,77.893 L121.8,78.975 L115.915,79.946 L114.971,79.946 L115.055,77.338 C113.916,79.032 112.417,79.946 110.557,79.946 C107.282,79.946 104.951,77.394 104.951,72.869 C104.951,67.456 108.227,64.54 112.306,64.54 C113.445,64.54 114.416,64.847 115.055,65.374 L115.055,60.822 L113.528,60.045 Z M110.086,71.314 C110.086,74.728 111.308,77.061 113.473,77.061 C114.028,77.061 114.554,76.949 115.055,76.671 L115.055,68.955 C115.055,67.095 114.526,66.095 113.084,66.095 C111.114,66.095 110.086,68.179 110.086,71.314 L110.086,71.314 Z" id="Fill-1"></path>
                        <path d="M135.73,76.616 C135.73,77.283 135.814,77.866 136.481,77.866 C136.869,77.866 137.23,77.782 137.424,77.699 L137.617,78.447 C136.702,79.364 135.508,79.947 133.953,79.947 C132.343,79.947 131.179,79.086 130.763,77.616 C129.958,78.78 128.625,79.863 126.571,79.863 C124.24,79.863 122.602,78.531 122.602,76.144 C122.602,73.73 124.296,72.73 126.266,72.037 L130.68,70.482 L130.68,67.65 C130.68,66.374 130.318,65.513 129.237,65.513 C128.154,65.513 127.738,66.403 127.738,67.705 C127.738,68.345 127.848,68.983 127.987,69.649 L124.905,70.066 C124.101,69.787 123.547,69.121 123.547,68.121 C123.547,65.596 126.155,64.43 129.514,64.43 C133.4,64.43 135.73,65.652 135.73,69.26 L135.73,76.616 Z M130.68,76.809 L130.68,71.674 L129.154,72.258 C128.181,72.619 127.544,73.146 127.544,74.728 C127.544,76.144 128.07,77.2 129.458,77.2 C129.902,77.2 130.235,77.061 130.68,76.809 L130.68,76.809 Z" id="Fill-2"></path>
                        <path d="M138.56,78.531 L138.394,74.784 L139.671,74.784 C140.226,77.061 141.67,78.78 143.834,78.78 C145.139,78.78 146.194,78.142 146.194,76.892 C146.194,75.478 145.111,75.005 143.223,74.395 C140.087,73.423 138.394,72.119 138.394,69.287 C138.394,66.179 140.782,64.43 144.111,64.43 C146,64.43 147.692,64.931 148.885,65.707 L148.885,69.038 L147.692,69.038 C147.359,67.206 146.139,65.596 144.196,65.596 C143.002,65.596 142.196,66.262 142.196,67.318 C142.196,68.484 143.029,68.954 144.862,69.593 C148.192,70.704 149.997,71.842 149.997,74.867 C149.997,78.115 147.581,79.947 143.834,79.947 C141.531,79.947 139.754,79.392 138.56,78.531" id="Fill-3"></path>
                        <path d="M153.603,79.502 C152.436,79.225 151.605,78.502 151.605,77.088 C151.605,75.561 152.77,74.589 154.268,74.589 C156.072,74.589 157.211,75.977 157.211,78.032 C157.211,81.03 155.213,82.889 151.522,83 L151.522,81.862 C153.409,81.584 154.573,81.03 154.742,79.502 L153.603,79.502" id="Fill-5"></path>
                        <path d="M184.105,67.539 C184.243,67.206 184.299,66.902 184.299,66.68 C184.299,66.096 183.8,65.929 182.716,65.79 L182.716,64.709 L187.519,64.709 L187.519,65.79 C186.548,66.096 186.354,66.289 186.103,66.902 L180.634,79.78 L178.969,79.78 L175.696,71.203 L171.809,79.78 L170.171,79.78 L164.342,66.902 C164.065,66.289 163.899,66.096 162.926,65.79 L162.926,64.709 L171.254,64.709 L171.254,65.79 C170.34,65.929 169.948,66.151 169.948,66.652 C169.948,66.873 170.032,67.178 170.171,67.539 L172.809,74.007 L174.89,69.371 L173.947,66.902 C173.723,66.289 173.419,66.012 172.67,65.79 L172.67,64.709 L180.884,64.709 L180.884,65.79 C179.72,65.929 179.164,66.04 179.164,66.735 C179.164,66.957 179.22,67.206 179.332,67.539 L181.634,73.73 L184.105,67.539" id="Fill-7"></path>
                        <path d="M200.314,76.616 C200.314,77.283 200.397,77.866 201.062,77.866 C201.452,77.866 201.813,77.782 202.007,77.699 L202.201,78.447 C201.284,79.364 200.092,79.947 198.537,79.947 C196.928,79.947 195.761,79.086 195.345,77.616 C194.541,78.78 193.208,79.863 191.154,79.863 C188.822,79.863 187.186,78.531 187.186,76.144 C187.186,73.73 188.877,72.73 190.85,72.037 L195.262,70.482 L195.262,67.65 C195.262,66.374 194.901,65.513 193.819,65.513 C192.737,65.513 192.319,66.403 192.319,67.705 C192.319,68.345 192.43,68.983 192.571,69.649 L189.489,70.066 C188.683,69.787 188.129,69.121 188.129,68.121 C188.129,65.596 190.738,64.43 194.096,64.43 C197.983,64.43 200.314,65.652 200.314,69.26 L200.314,76.616 Z M195.262,76.809 L195.262,71.674 L193.735,72.258 C192.764,72.619 192.125,73.146 192.125,74.728 C192.125,76.144 192.654,77.2 194.04,77.2 C194.486,77.2 194.819,77.061 195.262,76.809 L195.262,76.809 Z" id="Fill-8"></path>
                        <path d="M203.142,78.531 L202.975,74.784 L204.253,74.784 C204.807,77.061 206.251,78.78 208.416,78.78 C209.72,78.78 210.776,78.142 210.776,76.892 C210.776,75.478 209.693,75.005 207.806,74.395 C204.669,73.423 202.975,72.119 202.975,69.287 C202.975,66.179 205.364,64.43 208.693,64.43 C210.582,64.43 212.274,64.931 213.468,65.707 L213.468,69.038 L212.274,69.038 C211.941,67.206 210.72,65.596 208.778,65.596 C207.584,65.596 206.778,66.262 206.778,67.318 C206.778,68.484 207.611,68.954 209.443,69.593 C212.775,70.704 214.578,71.842 214.578,74.867 C214.578,78.115 212.162,79.947 208.416,79.947 C206.113,79.947 204.336,79.392 203.142,78.531" id="Fill-9"></path>
                        <path d="M227.455,77.088 C227.455,78.281 228.065,78.391 229.675,78.585 L229.675,79.669 L220.793,79.669 L220.793,78.585 C221.904,78.502 222.348,78.391 222.348,77.504 L222.348,66.206 L220.35,66.206 L220.35,65.097 L222.348,64.569 L222.348,64.041 C222.348,59.824 225.235,57.936 228.843,57.936 C231.812,57.936 233.144,58.934 233.144,60.628 C233.144,61.406 232.729,62.071 232.116,62.376 L229.509,62.376 C229.592,61.989 229.648,61.573 229.648,61.073 C229.648,60.101 229.509,59.157 228.649,59.157 C227.816,59.157 227.455,59.852 227.455,61.101 L227.455,64.709 L230.703,64.709 L230.703,66.206 L227.455,66.206 L227.455,77.088" id="Fill-10"></path>
                        <path d="M244.69,70.51 L244.69,71.203 L235.836,71.203 C235.779,74.506 237.613,76.56 240.139,76.56 C241.915,76.56 243.219,75.922 244.274,74.534 L244.801,74.867 C244.052,77.92 241.915,79.947 238.418,79.947 C234.309,79.947 231.202,77.199 231.202,72.536 C231.202,67.595 234.615,64.43 238.613,64.43 C242.636,64.43 244.69,66.985 244.69,70.51 M235.863,69.928 L240.305,69.928 C240.305,67.235 239.777,65.596 238.279,65.596 C236.752,65.596 236.002,67.345 235.863,69.928" id="Fill-11"></path>
                        <path d="M247.159,60.822 L245.633,60.045 L245.633,59.212 L251.434,57.936 L252.295,57.936 L252.295,67.206 C253.348,65.874 254.93,64.43 257.457,64.43 C260.12,64.43 261.648,65.957 261.648,68.983 L261.648,77.504 C261.648,78.391 262.091,78.502 263.202,78.586 L263.202,79.668 L255.041,79.668 L255.041,78.586 C256.153,78.502 256.513,78.391 256.513,77.504 L256.513,69.399 C256.513,68.179 256.097,67.456 254.654,67.456 C253.766,67.456 252.988,67.706 252.295,68.066 L252.295,77.504 C252.295,78.391 252.654,78.502 253.766,78.586 L253.766,79.668 L245.605,79.668 L245.605,78.586 C246.715,78.502 247.159,78.391 247.159,77.504 L247.159,60.822" id="Fill-12"></path>
                        <path d="M270.639,77.504 C270.639,78.392 271.084,78.502 272.194,78.585 L272.194,79.669 L263.951,79.669 L263.951,78.585 C265.06,78.502 265.503,78.392 265.503,77.504 L265.503,60.822 L263.979,60.046 L263.979,59.212 L269.78,57.936 L270.639,57.936 L270.639,77.504" id="Fill-13"></path>
                        <path d="M279.465,64.709 L282.711,64.709 L282.711,66.206 L279.465,66.206 L279.465,75.395 C279.465,76.726 279.992,77.31 281.048,77.31 C281.769,77.31 282.378,77.061 283.046,76.616 L283.462,77.227 C282.405,78.948 280.852,79.946 278.632,79.946 C276.078,79.946 274.302,78.668 274.302,75.395 L274.302,66.206 L272.721,66.206 L272.721,65.291 C274.941,64.457 276.939,62.85 278.382,60.932 L279.465,60.932 L279.465,64.709" id="Fill-14"></path>
                        <path d="M159.692,24.253 C159.692,21.032 158.267,18.99 155.233,18.99 C152.26,18.99 150.651,21.094 150.651,24.253 L150.651,45.121 L142.353,45.121 L142.353,11.992 L150.651,11.992 L150.651,14.468 C151.457,13.477 153.561,11.62 157.649,11.62 C165.388,11.62 167.99,16.884 167.99,23.262 L167.99,45.121 L159.692,45.121 L159.692,24.253" id="Fill-15"></path>
                        <path d="M198.328,41.839 C196.347,43.944 192.755,45.678 188.544,45.678 C178.264,45.678 171.453,38.619 171.453,28.649 C171.453,19.05 178.264,11.434 188.235,11.434 C192.445,11.434 195.727,12.796 197.77,14.654 L197.77,0.98 L206.069,0.98 L206.069,45.121 L198.328,45.121 L198.328,41.839 Z M188.916,38.247 C194.488,38.247 198.018,34.037 198.018,28.525 C198.018,23.014 194.365,18.803 188.916,18.803 C183.342,18.803 179.751,23.014 179.751,28.525 C179.751,34.099 183.529,38.247 188.916,38.247 L188.916,38.247 Z" id="Fill-16"></path>
                        <path d="M236.034,11.991 L236.034,32.427 C236.034,40.29 231.638,45.492 223.402,45.492 C214.299,45.492 210.77,40.29 210.77,32.427 L210.77,11.991 L219.067,11.991 L219.067,32.364 C219.067,35.584 220.43,37.628 223.402,37.628 C226.374,37.628 227.737,35.584 227.737,32.364 L227.737,11.991 L236.034,11.991" id="Fill-17"></path>
                        <path d="M266.249,45.121 L257.95,45.121 L257.95,24.253 C257.95,21.094 256.465,18.989 253.555,18.989 C250.582,18.989 249.034,21.094 249.034,24.376 L249.034,45.121 L240.736,45.121 L240.736,11.991 L249.034,11.991 L249.034,14.468 C249.901,13.416 251.944,11.619 256.155,11.619 C260.057,11.619 262.533,13.106 264.02,15.211 C265.506,13.478 267.984,11.619 272.318,11.619 C280.491,11.619 283.465,16.884 283.465,23.262 L283.465,45.121 L275.166,45.121 L275.166,24.253 C275.166,21.032 273.68,18.989 270.708,18.989 C267.736,18.989 266.249,21.28 266.249,24.253 L266.249,45.121" id="Fill-18"></path>
                        <path d="M133.015,31.713 L138.891,31.713 C139.041,30.725 139.133,29.707 139.133,28.649 C139.133,19.05 132.012,11.433 122.043,11.433 C112.072,11.433 104.951,19.05 104.951,28.649 C104.951,38.619 111.763,45.678 122.043,45.678 C130.384,45.678 136.442,41.028 138.429,33.947 L129.437,33.947 C127.928,36.54 125.299,38.226 122.043,38.226 C117.943,38.226 114.824,35.53 113.705,31.713 L133.015,31.713 Z M113.698,25.4 C114.808,21.603 117.921,18.833 122.043,18.833 C126.195,18.833 129.289,21.603 130.39,25.4 L113.698,25.4 L113.698,25.4 Z" id="Fill-19"></path>
                        <path d="M55.79,41.839 C53.808,43.944 50.216,45.678 46.005,45.678 C35.726,45.678 28.914,38.619 28.914,28.649 C28.914,19.05 35.726,11.434 45.695,11.434 C49.906,11.434 53.188,12.796 55.232,14.654 L55.232,0.98 L63.53,0.98 L63.53,45.121 L55.79,45.121 L55.79,41.839 Z M46.377,38.247 C51.95,38.247 55.48,34.037 55.48,28.525 C55.48,23.014 51.826,18.803 46.377,18.803 C40.804,18.803 37.213,23.014 37.213,28.525 C37.213,34.099 40.989,38.247 46.377,38.247 L46.377,38.247 Z" id="Fill-20"></path>
                        <path d="M93.992,41.839 C92.01,43.944 88.418,45.678 84.207,45.678 C73.927,45.678 67.115,38.619 67.115,28.649 C67.115,19.05 73.927,11.434 83.898,11.434 C88.108,11.434 91.39,12.796 93.434,14.654 L93.434,0.98 L101.732,0.98 L101.732,45.121 L93.992,45.121 L93.992,41.839 Z M84.579,38.247 C90.152,38.247 93.682,34.037 93.682,28.525 C93.682,23.014 90.029,18.803 84.579,18.803 C79.006,18.803 75.414,23.014 75.414,28.525 C75.414,34.099 79.192,38.247 84.579,38.247 L84.579,38.247 Z" id="Fill-21"></path>
                        <path d="M12.942,11.62 C5.519,11.62 1.78,15.399 1.269,21.149 L9.007,21.149 C9.276,19.594 10.331,18.184 12.942,18.184 C16.039,18.184 17.277,20.227 17.277,23.075 L17.277,24.748 C16.41,24.191 14.366,23.385 11.394,23.385 C4.521,23.385 0,28.092 0,34.284 C0,41.158 4.893,45.554 11.519,45.554 C15.357,45.554 17.587,44.007 18.515,43.015 L18.515,45.121 L25.451,45.121 L25.451,24.253 C25.451,16.883 22.479,11.62 12.942,11.62 M12.633,38.99 C9.784,38.99 7.802,37.009 7.802,34.223 C7.802,31.56 9.722,29.516 12.57,29.516 C15.357,29.516 17.401,31.436 17.401,34.223 C17.401,37.009 15.357,38.99 12.633,38.99" id="Fill-23"></path>
                    </g>
                </g>
            </g>
        </g>
    </g>
</svg>